<svg id="Layer_1" data-name="Layer 1" xmlns="http://www.w3.org/2000/svg" viewBox="0 0 256 236.37"><defs><style>.cls-1{fill:#1c1c1b;}.cls-2{fill:#fff;}</style></defs><title>state-ok</title><path class="cls-1" d="M198.63,108.73a67.58,67.58,0,0,1,58.43,33.58,43.57,43.57,0,0,0-23.13-80.49h-.77A55.74,55.74,0,0,0,125.34,36.75a48.74,48.74,0,0,0-67.4,43.82c-.73,0-1.46-.08-2.2-.08a34.24,34.24,0,0,0,0,68.48H136.8A67.64,67.64,0,0,1,198.63,108.73Z" transform="translate(-21.5)"/><circle class="cls-1" cx="177.13" cy="176.37" r="60"/><path class="cls-2" d="M232.37,158l-6.14-6.15a4.37,4.37,0,0,0-6.14,0l-29.63,29.68-13.28-13.33a4.37,4.37,0,0,0-6.14,0l-6.14,6.15a4.35,4.35,0,0,0,0,6.14l16.35,16.35,6.14,6.14a4.37,4.37,0,0,0,6.14,0l38.84-38.84a4.37,4.37,0,0,0,0-6.14Zm0,0" transform="translate(-21.5)"/></svg>