<svg id="Layer_1" data-name="Layer 1" xmlns="http://www.w3.org/2000/svg" viewBox="0 0 256 236.37"><defs><style>.cls-1{fill:#1c1c1b;}.cls-2{fill:#fff;}</style></defs><title>state-sync</title><path class="cls-1" d="M198.63,108.73a67.58,67.58,0,0,1,58.43,33.58,43.57,43.57,0,0,0-23.13-80.49h-.77A55.74,55.74,0,0,0,125.34,36.75a48.74,48.74,0,0,0-67.4,43.82c-.73,0-1.46-.08-2.2-.08a34.24,34.24,0,0,0,0,68.48H136.8A67.64,67.64,0,0,1,198.63,108.73Z" transform="translate(-21.5)"/><circle class="cls-1" cx="177.13" cy="176.37" r="60"/><path class="cls-2" d="M224.67,141.58a2.81,2.81,0,0,0-3,.6l-7.23,7.24a29.72,29.72,0,0,0-38.41,3l-3,3a5.82,5.82,0,0,0,8.23,8.24l3-3A18.06,18.06,0,0,1,206,157.82l-6.5,6.49a2.8,2.8,0,0,0,2,4.78H223.6a2.79,2.79,0,0,0,2.8-2.79V144.17a2.79,2.79,0,0,0-1.73-2.59Zm0,0" transform="translate(-21.5)"/><path class="cls-2" d="M216,189.1l-2.95,3a18.06,18.06,0,0,1-21.79,2.86l6.5-6.51a2.76,2.76,0,0,0,.61-3,2.79,2.79,0,0,0-2.58-1.73H173.67a2.8,2.8,0,0,0-2.8,2.8v22.13a2.8,2.8,0,0,0,4.78,2l7.22-7.22a29.65,29.65,0,0,0,38.42-3l3-3A5.82,5.82,0,0,0,216,189.1Zm0,0" transform="translate(-21.5)"/></svg>