<svg id="Layer_1" data-name="Layer 1" xmlns="http://www.w3.org/2000/svg" viewBox="0 0 256 236.37"><defs><style>.cls-1{fill:#1c1c1b;}.cls-2{fill:#fff;}</style></defs><title>state-information</title><path class="cls-1" d="M198.63,108.73a67.58,67.58,0,0,1,58.43,33.58,43.57,43.57,0,0,0-23.13-80.49h-.77A55.74,55.74,0,0,0,125.34,36.75a48.74,48.74,0,0,0-67.4,43.82c-.73,0-1.46-.08-2.2-.08a34.24,34.24,0,0,0,0,68.48H136.8A67.64,67.64,0,0,1,198.63,108.73Z" transform="translate(-21.5)"/><circle class="cls-1" cx="177.13" cy="176.37" r="60"/><path class="cls-2" d="M213.17,203.81l-1,4q-4.41,1.74-7,2.65a18.76,18.76,0,0,1-6.09.91c-3.55,0-6.32-.87-8.29-2.6a8.42,8.42,0,0,1-2.95-6.6,23.08,23.08,0,0,1,.22-3.18c.15-1.08.39-2.31.71-3.67l3.67-13c.33-1.24.6-2.42.83-3.53a15.8,15.8,0,0,0,.33-3,4.67,4.67,0,0,0-1-3.47c-.68-.65-2-1-3.92-1a10.33,10.33,0,0,0-2.91.44c-1,.3-1.85.58-2.57.85l1-4q3.6-1.47,6.9-2.51a20.49,20.49,0,0,1,6.23-1q5.29,0,8.16,2.56a8.48,8.48,0,0,1,2.87,6.64c0,.57-.06,1.56-.2,3a20.28,20.28,0,0,1-.73,3.91l-3.66,12.93a36.25,36.25,0,0,0-.8,3.56,18.35,18.35,0,0,0-.35,3c0,1.72.38,2.89,1.15,3.51a6.42,6.42,0,0,0,4,.94,11.49,11.49,0,0,0,3-.47,16.33,16.33,0,0,0,2.44-.82Zm.93-54.27a7.56,7.56,0,0,1-2.56,5.76,8.72,8.72,0,0,1-6.15,2.38,8.83,8.83,0,0,1-6.18-2.38,7.73,7.73,0,0,1,0-11.53,8.76,8.76,0,0,1,6.18-2.4,8.65,8.65,0,0,1,6.15,2.4,7.61,7.61,0,0,1,2.56,5.77Zm0,0" transform="translate(-21.5)"/></svg>