<svg id="Layer_1" data-name="Layer 1" xmlns="http://www.w3.org/2000/svg" viewBox="0 0 254.38 238.82"><defs><style>.cls-1{fill:#fff;}</style></defs><title>state-download</title><path class="cls-1" d="M161.07,86.09a5.69,5.69,0,0,0-6.94-4.1l-22,5.64a22.17,22.17,0,0,0-14.2-12.07V53a5.7,5.7,0,1,0-11.39,0V75.46A22.15,22.15,0,0,0,92,87.62L70,82a5.69,5.69,0,1,0-2.83,11L90,98.89a22,22,0,0,0,3.63,10.27h0L76,129.69a5.7,5.7,0,1,0,8.66,7.4l17.28-20.55h0a22.19,22.19,0,0,0,20.87-.34l-.45.24,17.36,20.65a5.7,5.7,0,1,0,8.66-7.4L130.54,109l0,.07a22.07,22.07,0,0,0,3.56-10.15L157,93A5.7,5.7,0,0,0,161.07,86.09Zm-48.86,23.79A12.92,12.92,0,1,1,125.13,97,12.92,12.92,0,0,1,112.21,109.88Z" transform="translate(-4.26 2.46)"/><path class="cls-1" d="M133.63,176.37c0-.56,0-1.11.05-1.66H39.24a7.44,7.44,0,0,1-7.44-7.45V26.49a7.44,7.44,0,0,1,7.44-7.44h144.7a7.44,7.44,0,0,1,7.44,7.44v85.29a65,65,0,0,1,23.13,1.55V6.9a9.36,9.36,0,0,0-9.35-9.36H18.88A9.35,9.35,0,0,0,9.53,6.9V39.09H4.41V69H9.53v55.86H4.26v29.93H9.53V187.1a9.35,9.35,0,0,0,9.35,9.36H136.81A65.1,65.1,0,0,1,133.63,176.37Z" transform="translate(-4.26 2.46)"/><path class="cls-1" d="M198.63,116.37a60,60,0,1,0,60,60A60,60,0,0,0,198.63,116.37Zm36.67,68.55L199.84,220.4a1.81,1.81,0,0,1-1.26.52,1.77,1.77,0,0,1-1.25-.52L162,184.92a1.76,1.76,0,0,1,1.25-3h19.5V137.59a1.78,1.78,0,0,1,1.77-1.78h28.36a1.78,1.78,0,0,1,1.77,1.78V181.9H234a1.77,1.77,0,0,1,1.64,1.09A1.75,1.75,0,0,1,235.3,184.92Z" transform="translate(-4.26 2.46)"/></svg>