<svg id="Layer_1" data-name="Layer 1" xmlns="http://www.w3.org/2000/svg" viewBox="0 0 254.38 238.28"><defs><style>.cls-1{fill:#fff;}</style></defs><title>state-sync</title><path class="cls-1" d="M161.07,86.63a5.71,5.71,0,0,0-6.94-4.1l-22,5.65a22.14,22.14,0,0,0-14.2-12.07V53.54a5.7,5.7,0,0,0-11.39,0V76A22.16,22.16,0,0,0,92,88.16L70,82.53a5.7,5.7,0,1,0-2.83,11L90,99.43a22,22,0,0,0,3.63,10.27h0L76,130.23a5.7,5.7,0,1,0,8.66,7.41l17.28-20.56h0a22.15,22.15,0,0,0,20.87-.33l-.45.24,17.36,20.65a5.7,5.7,0,1,0,8.66-7.41l-17.82-20.7,0,.07a22.07,22.07,0,0,0,3.56-10.15L157,93.57A5.71,5.71,0,0,0,161.07,86.63Zm-48.86,23.8a12.92,12.92,0,1,1,12.92-12.92A12.92,12.92,0,0,1,112.21,110.43Z" transform="translate(-4.26 1.91)"/><path class="cls-1" d="M133.63,176.91c0-.55,0-1.1.05-1.66H39.24a7.44,7.44,0,0,1-7.44-7.44V27a7.44,7.44,0,0,1,7.44-7.45h144.7A7.44,7.44,0,0,1,191.38,27v85.28a66.74,66.74,0,0,1,7.25-.41,65.41,65.41,0,0,1,15.88,2V7.44a9.35,9.35,0,0,0-9.35-9.35H18.88A9.35,9.35,0,0,0,9.53,7.44v32.2H4.41V69.57H9.53v55.86H4.26v29.92H9.53v32.3A9.35,9.35,0,0,0,18.88,197H136.81A65.05,65.05,0,0,1,133.63,176.91Z" transform="translate(-4.26 1.91)"/><path class="cls-1" d="M198.63,116.37a60,60,0,1,0,60,60A60,60,0,0,0,198.63,116.37Zm25.62,81-3,3a29.65,29.65,0,0,1-38.42,3l-7.22,7.22a2.8,2.8,0,0,1-4.78-2V186.44a2.8,2.8,0,0,1,2.8-2.8H195.8a2.79,2.79,0,0,1,2.58,1.73,2.76,2.76,0,0,1-.61,3l-6.5,6.51a18.06,18.06,0,0,0,21.79-2.86l2.95-3a5.82,5.82,0,0,1,8.24,8.23Zm2.15-31a2.79,2.79,0,0,1-2.8,2.79H201.47a2.8,2.8,0,0,1-2-4.78l6.5-6.49a18.06,18.06,0,0,0-21.78,2.86l-3,3A5.82,5.82,0,0,1,173,155.4l3-3a29.72,29.72,0,0,1,38.41-3l7.23-7.24a2.8,2.8,0,0,1,4.78,2Z" transform="translate(-4.26 1.91)"/></svg>