<svg xmlns="http://www.w3.org/2000/svg" viewBox="0 0 18.13 17.15"><defs><style>.cls-1{fill:#dbdbdb;}</style></defs><title>owncloud-icon</title><g id="Layer_2" data-name="Layer 2"><path class="cls-1" d="M24,6.75H7.89a.8.8,0,0,0-.81.8v2.78H6.64v2.58h.44v4.82H6.63v2.58h.45v2.78a.81.81,0,0,0,.81.81H24a.81.81,0,0,0,.81-.81V7.55A.81.81,0,0,0,24,6.75ZM22.76,21.38a.64.64,0,0,1-.64.64H9.64A.64.64,0,0,1,9,21.38V9.24a.64.64,0,0,1,.64-.64H22.12a.64.64,0,0,1,.64.64Z" transform="translate(-6.63 -6.75)"/><path class="cls-1" d="M20.15,14.38a.49.49,0,0,0-.6-.35l-1.9.49a1.89,1.89,0,0,0-1.22-1v-2a.49.49,0,0,0-1,0v1.94a1.91,1.91,0,0,0-1.26,1L12.3,14a.49.49,0,1,0-.25,1l2,.51a1.84,1.84,0,0,0,.32.88h0l-1.53,1.77a.49.49,0,0,0,.75.64L15.05,17h0a1.91,1.91,0,0,0,1.8,0l0,0,1.49,1.78a.49.49,0,0,0,.75-.64l-1.53-1.78h0a1.86,1.86,0,0,0,.31-.87l2-.51A.49.49,0,0,0,20.15,14.38Zm-4.22,2a1.11,1.11,0,1,1,1.12-1.11A1.11,1.11,0,0,1,15.93,16.43Z" transform="translate(-6.63 -6.75)"/></g></svg>